<svg xmlns="http://www.w3.org/2000/svg" width="300" height="219.518" viewBox="0 0 300 219.518"><g transform="translate(150 109.759)"><g transform="translate(-150 -109.759)"><g transform="translate(0 22.808)"><rect width="300" height="196.71" fill="#242057"/><rect width="300" height="5.195" transform="translate(0 10.102)" fill="#c40d3c"/><rect width="300" height="5.195" transform="translate(0 182.142)" fill="#c40d3c"/></g><g transform="translate(113.341 167.891)"><path d="M259.88,463.309V453.15h6.176v1.306h-4.769v3.269h4.329v1.32h-4.329v4.272H259.88Z" transform="translate(-259.88 -452.941)" fill="#f8f4e5"/><path d="M285.321,460.474h-4.5l-1.075,2.836h-1.5l4.041-10.159h1.616l4.041,10.159h-1.515Zm-3.99-1.3h3.492l-1.761-4.553Z" transform="translate(-264.995 -452.941)" fill="#f8f4e5"/><path d="M306.54,459.163h-1.515v4.156H303.61V453.16h3.824a2.944,2.944,0,0,1,3.11,3.023,2.847,2.847,0,0,1-2.461,2.879l2.417,4.257H308.87Zm.628-1.263a1.747,1.747,0,1,0,0-3.478h-2.15V457.9Z" transform="translate(-272.057 -452.944)" fill="#f8f4e5"/><path d="M335.395,463.309V455.4l-3.463,7.908H330.64l-3.435-7.908v7.908H325.82V453.15h1.9l3.579,8.269,3.608-8.269h1.876v10.159Z" transform="translate(-278.241 -452.941)" fill="#f8f4e5"/><path d="M359.42,455.826a2.06,2.06,0,0,0-2.15-1.732,1.794,1.794,0,0,0-1.963,1.688,1.468,1.468,0,0,0,1.306,1.472l1.515.332a2.935,2.935,0,0,1,2.634,2.85,3.207,3.207,0,0,1-3.507,3.009,3.525,3.525,0,0,1-3.8-3.023l1.349-.433a2.31,2.31,0,0,0,2.439,2.179c1.407,0,2.092-.729,2.092-1.616a1.645,1.645,0,0,0-1.515-1.573l-1.443-.318a2.813,2.813,0,0,1-2.475-2.778,3.238,3.238,0,0,1,3.355-3.023,3.192,3.192,0,0,1,3.435,2.518Z" transform="translate(-285.937 -452.86)" fill="#f8f4e5"/></g><g transform="translate(41.886 79.162)"><path d="M327.8,339.42H322.73v5.094h1.306V340.2h5.888c.2,0,.39.022.57.029-.426-.527-1.227-.808-2.7-.808" transform="translate(-205.925 -332.544)" fill="#f8f4e5"/><path d="M257.8,359.162c.029.029.18.115.837.159l.476.029V348.779l-1.306-2.619Z" transform="translate(-187.845 -334.42)" fill="#f8f4e5"/><path d="M312.917,367.295a2.636,2.636,0,0,1-.267.087v.685h9.892v-.685c-.621-.058-1.27-.231-1.3-.981v.895h-8.327Z" transform="translate(-203.118 -340.056)" fill="#f8f4e5"/><path d="M340.052,341.4c0,5.974-3.932,9-11.7,9H322.72v6.263c0,.043.007.072,0,.072a1.3,1.3,0,0,0,.556.13l.743.065v-5.765h6.458c5.664,0,10.867-1.595,10.867-8.175a7.39,7.39,0,0,0-2.078-5.6,9.488,9.488,0,0,1,.786,4" transform="translate(-205.922 -331.981)" fill="#f8f4e5"/><path d="M270.806,360.966l5.679-11.011V346.03l-6.674,12.937Z" transform="translate(-191.19 -334.384)" fill="#f8f4e5"/><path d="M265.752,334.525v-.685H263.58c.527,1.219,1.84,3.9,2.691,5.628.39.8.722,1.472.989,2.02.072-.13.152-.281.224-.418a64.423,64.423,0,0,1-2.814-6.1c-.007-.332.512-.39,1.082-.447" transform="translate(-189.455 -330.99)" fill="#f8f4e5"/><path d="M288.16,333.866a.641.641,0,0,0-.007.094v21.726a.361.361,0,0,0,.007.079s.079.087.455.123l.736.079v2.251h-7.627a4.053,4.053,0,0,1-.613.087v.685h9.546v-.685c-.52-.058-1.205-.231-1.205-1.032V335.547c0-.8.685-.967,1.205-1.032v-.685H288.21a.285.285,0,0,0-.051.036" transform="translate(-194.336 -330.987)" fill="#f8f4e5"/><path d="M277.174,405.531l-1-2.071-3.4,7.252h1.963Z" transform="translate(-192.017 -350.375)" fill="#f8f4e5"/><path d="M296.738,416.712a.715.715,0,0,0,.4.1h.166c-3.1-6.84-9.7-20.167-9.7-20.788,0-.4.173-.512.75-.57v-.685H286.47c.592,1.414,2.5,5.39,4.207,8.969,2.266,4.733,4.834,10.1,6.061,12.974" transform="translate(-195.829 -347.956)" fill="#f8f4e5"/><path d="M374.84,394.875v6.379h1.306V396.47c0-.794.685-.967,1.6-1.025v-.685h-2.72c-.123.036-.173.079-.188.115" transform="translate(-220.435 -347.953)" fill="#f8f4e5"/><path d="M440.614,339.74H424.74v2.98h1.306v-2.208h14.77v-.231a.936.936,0,0,0-.1-.527.355.355,0,0,0-.1-.014" transform="translate(-234.329 -332.633)" fill="#f8f4e5"/><path d="M426.036,353.6h8.825v-.3c0-.483-.115-.483-.209-.483H424.73v4h1.306Z" transform="translate(-234.327 -336.275)" fill="#f8f4e5"/><path d="M343.245,402.2c0-.433-.094-.433-.2-.433H335.69v16.783a.257.257,0,0,0,.007.072,1.15,1.15,0,0,0,.563.13l.736.065V402.535h6.256V402.2Z" transform="translate(-209.534 -349.905)" fill="#f8f4e5"/><path d="M374.837,414.14l-.007,7.908c.036.029.18.123.83.159l.483.029v-7.324h9.676v-.772Z" transform="translate(-220.432 -353.349)" fill="#f8f4e5"/><path d="M442.631,352.842h.685V345.41h-.685c0,.772-.289,1.1-.621,1.227v4.979c.332.13.621.462.621,1.227" transform="translate(-239.138 -334.211)" fill="#f8f4e5"/><path d="M362.74,367.729v.685h22.945v-.166c0-.476-.108-.592-.108-.592a.359.359,0,0,0-.094-.007H363.389a5.326,5.326,0,0,1-.649.079" transform="translate(-217.066 -340.404)" fill="#f8f4e5"/><path d="M397.78,365.733v.26c.332.144.621.5.621,1.342h.685V358.64H398.4c0,.844-.289,1.2-.621,1.335Z" transform="translate(-226.823 -337.895)" fill="#f8f4e5"/><path d="M373.69,333.955v16.783h1.3V335.55c0-.794.693-.967,1.486-1.025v-.685h-2.634c-.1.036-.144.079-.152.115" transform="translate(-220.115 -330.99)" fill="#f8f4e5"/><path d="M216.373,367.587a6.133,6.133,0,0,1-.823.087v.685h11.321v-.685a3.905,3.905,0,0,1-1.3-.224v.137h-9.2Z" transform="translate(-176.081 -340.348)" fill="#f8f4e5"/><path d="M401.511,428.449h-8.875a5.844,5.844,0,0,1-.685.094v.685h10.867v-.685a2.212,2.212,0,0,1-1.306-.382Z" transform="translate(-225.199 -357.253)" fill="#f8f4e5"/><path d="M299.4,427.748c-.043-.108-.108-.245-.159-.368v.844h-7.706a1.176,1.176,0,0,1-.491.094V429h9.5v-.685a1.208,1.208,0,0,1-1.14-.57" transform="translate(-197.101 -357.036)" fill="#f8f4e5"/><path d="M334.038,427.33v.887H325.56a3.884,3.884,0,0,1-.52.094V429h10.3v-.685c-.606-.058-1.263-.231-1.3-.981" transform="translate(-206.568 -357.022)" fill="#f8f4e5"/><path d="M373.371,428.449H364.5a5.843,5.843,0,0,1-.685.094v.685h10.867v-.685a2.212,2.212,0,0,1-1.306-.382Z" transform="translate(-217.364 -357.253)" fill="#f8f4e5"/><path d="M320.1,401.78H313.17v2.028h.685c0-1.032.57-1.255,1.025-1.255H320.1Z" transform="translate(-203.263 -349.908)" fill="#f8f4e5"/><path d="M349.4,394.189v6c.332.13.613.447.613,1.176h.685V393.02h-.685c0,.729-.281,1.046-.613,1.169" transform="translate(-213.351 -347.468)" fill="#f8f4e5"/><path d="M450.26,360.876v5.5c.3.152.5.44.729,1.039h.57V359.75h-.685a1.887,1.887,0,0,1-.613,1.126" transform="translate(-241.435 -338.204)" fill="#f8f4e5"/><path d="M450.883,332.09c0,.729-.289,1.046-.613,1.176v5.21c.325.137.613.476.613,1.284h.685V332.1h-.685Z" transform="translate(-241.438 -330.503)" fill="#f8f4e5"/><path d="M437.911,368.308c-.26-.678-.26-.678-.83-.678H414.345a4.638,4.638,0,0,1-.635.087v.685h24.244Z" transform="translate(-231.258 -340.399)" fill="#f8f4e5"/><path d="M402.974,394.873l-.014,21.769c.036.029.18.123.83.159l.483.029V396.46c0-.794.685-.967,1.6-1.025v-.685h-2.72c-.123.043-.166.087-.18.123" transform="translate(-228.265 -347.95)" fill="#f8f4e5"/><path d="M196.808,335.129l-2.518,5.3c.368.2.584.382.584.512,0,.231-.058.455-.058.628l.743.346,3.435-7.2-.628-.231a1.925,1.925,0,0,1-1.256.693c-.079-.007-.209-.036-.3-.043" transform="translate(-170.161 -331.168)" fill="#f8f4e5"/><path d="M173.32,341.108c0,.368.621.642,1.486.859.909-1.768,5.065-1.775,6.335-1.775a18.92,18.92,0,0,1,4.56.613,17.494,17.494,0,0,0-6.689-1.385c-5.137,0-5.693,1.183-5.693,1.688" transform="translate(-164.322 -332.544)" fill="#f8f4e5"/><path d="M223.016,401.122H228.9c.209,0,.39.022.577.029-.44-.52-1.234-.8-2.706-.8H221.71v5.094h1.306Z" transform="translate(-177.796 -349.509)" fill="#f8f4e5"/><path d="M176,353.577a43.408,43.408,0,0,1-6.075-1.017c3.42,1.58,8.449,1.652,11.74,2.273-.859-.685-3.377-1-5.664-1.255" transform="translate(-163.376 -336.202)" fill="#f8f4e5"/><path d="M226.892,333.955l-.022,21.755c.051.036.245.137,1.068.173l.26.014V335.55c0-.794.685-.967,1.826-1.025v-.685h-2.879c-.166.036-.238.079-.253.116" transform="translate(-179.233 -330.99)" fill="#f8f4e5"/><path d="M220.216,427.32v.895H211.9a1.834,1.834,0,0,1-.267.087v.685h9.892V428.3c-.613-.051-1.27-.231-1.306-.981" transform="translate(-174.99 -357.019)" fill="#f8f4e5"/><path d="M258.373,367.612a2.212,2.212,0,0,1-1.306-.382v.3H249.9a3.035,3.035,0,0,1-.512.087v.685h8.976v-.685Z" transform="translate(-185.504 -340.287)" fill="#f8f4e5"/><path d="M238.255,398.34a9.669,9.669,0,0,1,.779,4c0,5.967-3.932,9-11.7,9H221.71v6.263a.451.451,0,0,0,.007.079,1.1,1.1,0,0,0,.556.13l.743.065v-5.765h6.465c5.664,0,10.859-1.6,10.859-8.175a7.393,7.393,0,0,0-2.085-5.6" transform="translate(-177.796 -348.95)" fill="#f8f4e5"/><path d="M278.693,422.282c-.13-.267-.267-.534-.368-.772H266.16c-.159.375-.375.808-.592,1.255s-.534,1.09-.7,1.494h.642v2.331h-6.754a1.619,1.619,0,0,1-.527.094v.685h8.579v-.685c-.231,0-.743,0-.743-.52,0-.628,1.313-2.865,1.66-3.889h10.968Z" transform="translate(-187.965 -355.401)" fill="#f8f4e5"/><path d="M188.835,351.59a7.009,7.009,0,0,1,.527,2.742c0,4.438-3.521,9.171-13.406,9.171a49.476,49.476,0,0,1-11.429-1.818c-.115-.029-.238-.065-.346-.094l-.39,1.255.635.173a2.047,2.047,0,0,1,1.313-.8c.462,0,6.862,2.056,12.353,2.056,8.745,0,12.577-3.889,12.577-8.348a5.586,5.586,0,0,0-1.833-4.337" transform="translate(-161.669 -335.932)" fill="#f8f4e5"/><path d="M163.188,347.894l.743.346c0,.173-.058.346-.058.628,0,1.486,6.581,2.973,11.213,2.973,1.429,0,5.2-.231,5.2-2.46,0-4.459-18.7-.115-18.7-9.719,0-3.543,3.377-8.522,12.692-8.522,5.426,0,10.123,1.486,11.379,1.486a1.9,1.9,0,0,0,1.256-.685l.628.231-3.427,7.2-.743-.339c0-.173.058-.4.058-.628,0-.57-4.062-2.114-7.894-2.114-1.429,0-6.516,0-6.516,2.518,0,4.062,18.7-.115,18.7,9.835,0,4.459-3.831,8.348-12.577,8.348-5.491,0-11.891-2.056-12.353-2.056a2.017,2.017,0,0,0-1.313.8l-.628-.173Z" transform="translate(-160.85 -330.238)" fill="#f8f4e5"/><path d="M223.921,331.62v.685c-1.147.058-1.833.231-1.833,1.025v21.733c0,.8.685.967,1.833,1.025v.685H212.6v-.685c1.14-.058,1.826-.231,1.826-1.025V333.337c0-.8-.693-.967-1.826-1.025v-.685h11.321Z" transform="translate(-175.26 -330.372)" fill="#f8f4e5"/><path d="M253.821,355.07c0,.8.685.967,1.595,1.025v.685H246.44V356.1c.628-.058,1.32-.231,1.32-1.025V333.337c0-.8-.693-.974-1.32-1.032v-.685h12.411v.685c-.577.058-1.09.115-1.09.455,0,.577,4.236,8.861,4.69,10.008,1.826-3.716,5.029-9.265,5.029-10.008,0-.346-.512-.4-1.082-.455v-.685h12.468v.685c-.52.058-1.205.231-1.205,1.032v21.726c0,.8.685.967,1.205,1.025v.685h-9.553v-.685c.8-.058,1.486-.231,1.486-1.025V338.821h-.115l-8.522,16.531-8.233-16.531h-.115V355.07Z" transform="translate(-184.682 -330.372)" fill="#f8f4e5"/><path d="M310.616,333.337a1.049,1.049,0,0,0-.916-1.032v-.685h15.037c5.664,0,10.867,1.6,10.867,8.175s-5.2,8.182-10.867,8.182h-6.458v7.086c0,.8.685.967,1.313,1.025v.685H309.7v-.685a1.047,1.047,0,0,0,.916-1.025Zm7.663,9.835h5.426c3.1,0,4.459-.909,4.459-3.37,0-2.345-1.14-3.377-4-3.377h-5.888v6.747Z" transform="translate(-202.297 -330.372)" fill="#f8f4e5"/><path d="M361.334,333.34c0-.8-.685-.967-1.544-1.025v-.685h10.693v.685c-.8.058-1.486.224-1.486,1.025v17.613h15.665c.455,0,1.032-.231,1.032-1.429h.685v8.695h-.685c0-1.2-.577-1.429-1.032-1.429H359.79v-.685c.859-.058,1.544-.231,1.544-1.025Z" transform="translate(-216.244 -330.374)" fill="#f8f4e5"/><path d="M436.257,351.262c.685,0,1.255-.4,1.486-1.429h.685V357.5h-.57c-.4-1.032-.685-1.2-1.6-1.2H410.75v-.685c.8-.058,1.6-.231,1.6-1.025V332.856c0-.8-.808-.974-1.6-1.025v-.685h25.961c.455,0,1.025-.231,1.025-1.255h.685v7.663h-.685c0-1.14-.57-1.371-1.025-1.371h-16.7v4.64h10.744c.462,0,1.032-.231,1.032-1.32h.685v7.432h-.685c0-1.082-.57-1.313-1.032-1.313H420.015v5.657h16.242Z" transform="translate(-230.434 -329.89)" fill="#f8f4e5"/><path d="M209.589,394.257a1.028,1.028,0,0,0-.909-1.025v-.693h15.037c5.664,0,10.867,1.6,10.867,8.182s-5.2,8.175-10.867,8.175h-6.458v7.093c0,.8.685.974,1.313,1.032v.685H208.68v-.685a1.037,1.037,0,0,0,.909-1.032Zm7.67,9.835h5.433c3.088,0,4.466-.909,4.466-3.37,0-2.345-1.147-3.377-4-3.377h-5.888v6.747Z" transform="translate(-174.168 -347.335)" fill="#f8f4e5"/><path d="M278.96,417.7v-.685c.231,0,.743,0,.743-.512,0-.628-1.256-2.857-1.66-3.889H264.781c-.346,1.025-1.652,3.261-1.652,3.889,0,.512.512.512.743.512v.685H255.3v-.685a1.207,1.207,0,0,0,1.14-.57c4.575-10.693,9.892-21.841,9.892-22.65,0-.4-.173-.512-.743-.57v-.693h11.956v.693c-.57.058-.743.166-.743.57,0,.685,8,16.754,10.52,22.65a1.215,1.215,0,0,0,1.14.57v.685Zm-2.857-9.2L271.3,398.49l-4.69,10.008Z" transform="translate(-187.149 -347.332)" fill="#f8f4e5"/><path d="M335.951,392.056c.462,0,1.032-.224,1.032-1.255h.685v8.348h-.685c0-1.025-.57-1.255-1.032-1.255h-8.175V415.5c0,.8.685.974,1.32,1.032v.685h-10.3v-.685c.628-.051,1.32-.231,1.32-1.032V397.893h-8.175c-.455,0-1.032.224-1.032,1.255h-.685V390.8h.685c0,1.032.577,1.255,1.032,1.255h24.013Z" transform="translate(-202.442 -346.85)" fill="#f8f4e5"/><path d="M370.125,407.3v8.688c0,.8.685.974,1.6,1.032v.685H360.86v-.685c.916-.051,1.6-.231,1.6-1.032V394.257c0-.8-.685-.974-1.6-1.025v-.693h10.867v.693c-.916.058-1.6.231-1.6,1.025v7.208h12.642v-7.208c0-.8-.685-.974-1.6-1.025v-.693h10.867v.693c-.916.058-1.6.231-1.6,1.025v21.726c0,.8.685.974,1.6,1.032v.685H381.164v-.685c.909-.051,1.6-.231,1.6-1.032V407.3H370.125Z" transform="translate(-216.542 -347.335)" fill="#f8f4e5"/></g><g transform="translate(117.375)"><path d="M266.56,253.993A32.643,32.643,0,1,1,299.2,286.636a32.648,32.648,0,0,1-32.643-32.643" transform="translate(-265.773 -220.506)" fill="#f8f4e5"/><path d="M298.9,220.18a33.43,33.43,0,1,0,33.43,33.43,33.427,33.427,0,0,0-33.43-33.43m0,53.482A20.059,20.059,0,1,1,318.959,253.6,20.058,20.058,0,0,1,298.9,273.661" transform="translate(-265.47 -220.18)" fill="#242057"/><path d="M320.785,285.151,305.654,275.5a.627.627,0,0,0-.671,0l-15.131,9.647-1.082-1.7,15.124-9.647a2.662,2.662,0,0,1,2.843,0l15.131,9.647Z" transform="translate(-271.958 -234.996)" fill="#242057"/><path d="M326.94,269.457,331.7,266.5l-4.755-2.958Z" transform="translate(-282.586 -232.253)" fill="#242057"/><rect width="23.061" height="2.013" transform="translate(23.22 33.235)" fill="#242057"/><path d="M296.774,263.74l2.814,2.814-2.814,2.814H290.8l2.821-2.814L290.8,263.74Z" transform="translate(-272.523 -232.309)" fill="#242057"/><path d="M310.16,260.4c.671-.541,1.32-1.573,2.129-2.02a8.027,8.027,0,0,0,1.4-.9,4.151,4.151,0,0,0,1.551-2.612,9.225,9.225,0,0,0-.051-2.576,9.413,9.413,0,0,1-.108-1.862,13.167,13.167,0,0,1,.325-1.782c.036-.3.029-.195.173-.2a1.159,1.159,0,0,0,.642-.368c.108-.13.123-.159.1-.411-.029-.31-.007-.52.332-.39.13.043.245.072.26.051.058-.051-.007-.318-.108-.483s-.13-.455-.065-.5c.022-.007.036-.108.036-.209a.455.455,0,0,0-.13-.346.414.414,0,0,1-.13-.317.343.343,0,0,0-.3-.39c-.281-.043-.31-.065-.382-.195a.222.222,0,0,0-.2-.13.812.812,0,0,0-.281.065,1.209,1.209,0,0,1-.382.065.54.54,0,0,0-.541.354c-.043.1-.123.166-.166.166a3.25,3.25,0,0,0-.952.722,3.115,3.115,0,0,0-.678,1.162,13.707,13.707,0,0,1-1.551,3.117,2.652,2.652,0,0,1-2.071,1.039,4.551,4.551,0,0,1-1.378-.079c-.649-.115-.945-.065-1.472-.209l-.606-.1-.786-.808c-1.335-.96-1.436-1.631-1.84-1.688-.231-.029-.339.051-.339.231v.108l-.188-.115c-.224-.13-.476-.144-.548-.029a1.164,1.164,0,0,0,.036.729l.087.18-.281-.022c-.274-.022-.274-.022-.3.094a.963.963,0,0,0,.144.685c.159.26.166.274.043.209s-.173-.014-.173.224a3.066,3.066,0,0,0,.628,2.309l.325.339-.31-.159s-.051-.043-.137.029a.354.354,0,0,0-.029.289,2.829,2.829,0,0,0,.281.736,4.272,4.272,0,0,0,1.775,2.028l.216.079.072.4a2.962,2.962,0,0,0,1.248,2.028c.325.238,1.371,1.458,1.573,1.53a6.171,6.171,0,0,0,3.11-.065" transform="translate(-275.468 -227.024)" fill="#242057"/><rect width="2.013" height="5.462" transform="translate(32.434 34.245)" fill="#242057"/><path d="M311.114,287.961a1.541,1.541,0,1,1,1.544-1.537,1.54,1.54,0,0,1-1.544,1.537" transform="translate(-277.75 -238.196)" fill="#242057"/></g><g transform="translate(190.208 168.591)"><path d="M367.261,454.19v1.652h-.289V454.19h-.563v-.31h1.414v.31Z" transform="translate(-366.41 -453.844)" fill="#f8f4e5"/><path d="M370.309,455.85V454.4l-.541,1.45h-.253l-.534-1.443v1.443H368.7v-1.97h.39l.563,1.5.556-1.5h.4v1.97Z" transform="translate(-367.048 -453.844)" fill="#f8f4e5"/><path d="M371.87,455.859h-.26l.851-2h.26Z" transform="translate(-367.858 -453.838)" fill="#f8f4e5"/><path d="M375.039,455.85V454.4l-.541,1.45h-.253l-.534-1.443v1.443h-.281v-1.97h.39l.563,1.5.556-1.5h.4v1.97Z" transform="translate(-368.365 -453.844)" fill="#f8f4e5"/><path d="M376.49,454.855a.928.928,0,0,1,.866-1.025.777.777,0,0,1,.779.635l-.274.108a.5.5,0,0,0-.5-.433c-.281,0-.57.238-.57.714s.274.707.57.707a.528.528,0,0,0,.512-.433l.267.1a.8.8,0,0,1-.779.649A.929.929,0,0,1,376.49,454.855Z" transform="translate(-369.217 -453.83)" fill="#f8f4e5"/></g></g></g></svg>